<svg xmlns="http://www.w3.org/2000/svg" width="1200" height="300" viewBox="0 0 1200 300">
  <defs>
    <linearGradient id="bg" x1="0%" y1="0%" x2="100%" y2="100%">
      <stop offset="0%" style="stop-color:#050505;stop-opacity:1" />
      <stop offset="100%" style="stop-color:#0a0a0a;stop-opacity:1" />
    </linearGradient>
    <linearGradient id="accent" x1="0%" y1="0%" x2="100%" y2="0%">
      <stop offset="0%" style="stop-color:#1912e3;stop-opacity:1" />
      <stop offset="100%" style="stop-color:#1912e3;stop-opacity:0.6" />
    </linearGradient>
    <linearGradient id="glow" x1="50%" y1="0%" x2="50%" y2="100%">
      <stop offset="0%" style="stop-color:#1912e3;stop-opacity:0.15" />
      <stop offset="100%" style="stop-color:#1912e3;stop-opacity:0" />
    </linearGradient>
  </defs>
  <rect width="1200" height="300" fill="url(#bg)" rx="12"/>
  <rect x="0" y="0" width="1200" height="120" fill="url(#glow)"/>
  <rect x="0" y="0" width="6" height="300" fill="url(#accent)" rx="3"/>
  <rect x="60" y="240" width="400" height="2" fill="url(#accent)" opacity="0.4"/>
  <text x="60" y="100" font-family="'Space Grotesk', sans-serif" font-size="52" font-weight="700" fill="#f4f4f5" letter-spacing="-0.5">LittleLemon</text>
  <text x="60" y="140" font-family="'Inter', sans-serif" font-size="20" font-weight="400" fill="#8a8a8a" letter-spacing="-0.2">Restaurant Management System — Django Capstone Project</text>
  <rect x="60" y="175" width="70" height="26" rx="4" fill="#1912e3" opacity="0.2"/>
  <text x="67" y="193" font-family="'Inter', sans-serif" font-size="12" font-weight="500" fill="#1912e3">Django 5.2</text>
  <rect x="142" y="175" width="80" height="26" rx="4" fill="#1912e3" opacity="0.2"/>
  <text x="150" y="193" font-family="'Inter', sans-serif" font-size="12" font-weight="500" fill="#1912e3">Python</text>
  <rect x="234" y="175" width="85" height="26" rx="4" fill="#1912e3" opacity="0.2"/>
  <text x="241" y="193" font-family="'Inter', sans-serif" font-size="12" font-weight="500" fill="#1912e3">DRF</text>
  <rect x="330" y="175" width="75" height="26" rx="4" fill="#1912e3" opacity="0.2"/>
  <text x="338" y="193" font-family="'Inter', sans-serif" font-size="12" font-weight="500" fill="#1912e3">SQLite</text>
  <text x="1040" y="280" font-family="'Inter', sans-serif" font-size="11" font-weight="400" fill="#8a8a8a" opacity="0.5" text-anchor="end">SoRisk3</text>
</svg>
